<svg fill="none" height="113" viewBox="0 0 550 113" width="550" xmlns="http://www.w3.org/2000/svg"><g fill="#00a479"><path d="m72.4566 70.3002c0 4.9507-4.0014 8.7875-8.8781 8.7875-1.7506.1237-3.1261 1.4852-3.2511 3.2179-.1251 1.8565 1.3754 3.4655 3.2511 3.5893 8.7531 0 15.7555-7.0548 15.7555-15.5947 0-1.8566-1.5005-3.3418-3.3762-3.3418-2.0007-.1237-3.5012 1.4852-3.5012 3.3418z"/><path d="m57.5766 0c-31.511 0-57.019959 25.3724-57.019959 56.5619s25.508959 56.4381 57.019959 56.4381 57.0194-25.3724 57.0194-56.4381c0-31.1895-25.5084-56.5619-57.0194-56.5619zm0 97.1577c-16.7559 0-30.2606-13.3669-30.2606-29.9518 0-6.8072 4.7516-17.3275 13.8798-31.5608 6.7524-10.1489 13.2547-18.3176 13.6298-18.6889.6252-.8664 1.7506-1.2377 2.751-1.2377 1.0003 0 2.1257.3713 2.7509 1.2377.2501.3713 6.8774 8.6637 13.5047 18.9365 9.3783 13.9857 14.0049 24.6298 14.0049 31.437-.125 16.4611-13.6297 29.828-30.2605 29.828z"/><path d="m168.431 80.7703c-2.856 0-5.713-.499-8.401-1.4137-2.521-.9147-4.873-2.3283-6.805-4.2409-2.017-1.9957-3.529-4.324-4.537-6.985-1.176-3.0767-1.764-6.3197-1.68-9.6459-.084-3.2431.504-6.5693 1.68-9.646 1.008-2.6609 2.605-5.0724 4.621-7.1513 1.932-1.9126 4.284-3.4925 6.805-4.4904 2.604-.9978 5.461-1.5799 8.233-1.4967 2.856-.0832 5.629.4989 8.233 1.7462 2.1.9979 3.949 2.3283 5.545 3.9083l-5.125 6.2366c-1.092-.9979-2.268-1.8294-3.528-2.4946-1.429-.7484-3.109-1.0811-4.705-.9979-1.596 0-3.192.3326-4.705.9979-1.428.6652-2.688 1.5799-3.696 2.7441-1.092 1.3304-1.848 2.8272-2.353 4.4072-.588 1.9125-.84 3.8251-.84 5.8208 0 4.4904 1.008 7.9829 3.025 10.3943 2.016 2.4947 5.125 3.6589 9.241 3.6589.84 0 1.764 0 2.604-.2495.757-.1663 1.513-.4989 2.101-.9979v-7.4839h-7.225v-7.9829h15.962v19.9572c-1.764 1.5799-3.781 2.9104-6.049 3.742-2.688 1.1641-5.545 1.7462-8.401 1.6631z"/><path d="m206.068 80.7703c-2.268 0-4.536-.4157-6.637-1.1641-2.016-.7484-3.864-1.9126-5.376-3.4094-1.597-1.5799-2.773-3.4093-3.529-5.405-.924-2.3284-1.344-4.823-1.26-7.3177 0-2.4946.42-4.9061 1.344-7.2344.84-1.9957 2.016-3.9083 3.529-5.4882 1.428-1.4968 3.108-2.661 5.04-3.4094 3.865-1.5799 8.233-1.5799 12.098 0 1.68.7484 3.276 1.9126 4.453 3.3262 1.176 1.4968 2.1 3.1599 2.688 4.9893.588 2.0789.924 4.2409.84 6.4029 0 .8316-.084 1.6631-.168 2.4947-.084.582-.168 1.1641-.252 1.8294h-19.911c.252 2.0788 1.344 3.9914 3.025 5.3219 1.68 1.1641 3.612 1.7462 5.712 1.6631 2.521-.0832 5.041-.8316 7.226-2.1621l3.276 5.904c-1.764 1.1642-3.697 2.0789-5.713 2.7441-2.184.5821-4.284.9147-6.385.9147zm-7.393-20.8718h12.014c.084-1.5799-.336-3.1599-1.26-4.4904-.84-1.1641-2.269-1.7462-4.285-1.7462-1.512 0-3.024.4989-4.116 1.4968-1.345 1.3304-2.185 2.9935-2.353 4.7398z"/><path d="m225.979 80.0219v-33.0124h8.065l.672 5.8208h.252c1.008-1.9957 2.52-3.7419 4.369-4.9892 1.512-.9979 3.276-1.58 5.124-1.58.757 0 1.513.0832 2.353.1663.588.0832 1.176.2495 1.68.4989l-1.68 8.3987c-.588-.1663-1.176-.3326-1.765-.4158-.588-.0831-1.26-.1663-1.848-.1663-1.428.0832-2.772.4989-3.948 1.3305-1.597 1.1641-2.773 2.8272-3.361 4.7398v19.1256z"/><path d="m266.976 80.7703c-2.268 0-4.536-.4157-6.636-1.1641-2.017-.7484-3.865-1.9126-5.377-3.4094-1.596-1.5799-2.773-3.4093-3.529-5.405-.924-2.3284-1.344-4.823-1.26-7.3177 0-2.4946.42-4.9061 1.344-7.2344.84-1.9957 2.017-3.9083 3.529-5.4882 1.428-1.4968 3.108-2.661 5.04-3.4094 3.865-1.5799 8.234-1.5799 12.098 0 1.68.7484 3.277 1.9126 4.453 3.3262 1.176 1.4968 2.1 3.1599 2.688 4.9893.588 2.0789.84 4.1577.84 6.3198 0 .8315-.084 1.6631-.168 2.4946-.084.5821-.168 1.1642-.252 1.8294h-19.995c.252 2.0789 1.345 3.9914 3.025 5.3219 1.68 1.1642 3.612 1.7463 5.713 1.6631 2.52-.0831 5.04-.8315 7.225-2.162l3.276 5.9871c-1.764 1.1642-3.696 2.0789-5.713 2.7441-2.184.5821-4.2.9147-6.301.9147zm-7.393-20.8718h12.014c.084-1.5799-.336-3.1599-1.26-4.4904-.84-1.1641-2.268-1.7462-4.285-1.7462-1.512 0-3.024.4989-4.116 1.4968-1.344 1.3304-2.185 2.9104-2.353 4.7398z"/><path d="m286.888 80.0219v-33.0125h8.065l.672 4.1578h.252c1.428-1.3305 3.024-2.4947 4.705-3.4925 1.848-.9979 3.864-1.58 5.964-1.4968 3.613 0 6.301 1.1642 7.898 3.4925 1.596 2.3283 2.436 5.5714 2.436 9.8123v20.5392h-9.913v-19.2919c0-2.4115-.337-4.0746-1.009-4.9061-.756-.9147-1.932-1.4137-3.108-1.3305-1.092 0-2.268.2494-3.192.8315-1.093.6653-2.017 1.4968-2.941 2.3284v22.2854h-9.829z"/><path d="m339.815 80.7703c-2.184 0-4.452-.4158-6.469-1.1642-1.932-.7483-3.696-1.9125-5.208-3.3261-1.513-1.58-2.689-3.4094-3.529-5.4051-.924-2.3283-1.344-4.823-1.26-7.3176-.084-2.4947.42-4.9893 1.428-7.3176.84-2.0789 2.184-3.9083 3.781-5.4051 1.596-1.4968 3.528-2.5778 5.544-3.3262 2.101-.7484 4.369-1.1642 6.553-1.1642 1.849 0 3.697.3327 5.461.9979 1.512.5821 2.941 1.4968 4.285 2.4946l-4.621 6.3198c-1.26-1.1642-2.856-1.8294-4.537-1.9126-2.184-.0831-4.284.8316-5.712 2.4947-1.513 1.9957-2.185 4.4072-2.101 6.8187 0 2.9104.672 5.1556 2.101 6.8187 1.26 1.5799 3.276 2.4946 5.376 2.4946 1.093 0 2.185-.2495 3.109-.6652 1.008-.4158 1.932-.9979 2.856-1.6631l3.865 6.4029c-1.596 1.3305-3.361 2.4115-5.377 2.9936-1.764.4989-3.612.8315-5.545.8315z"/><path d="m361.575 42.1033c-1.513.0832-2.941-.4158-4.117-1.4136-1.092-.9147-1.68-2.2452-1.596-3.6588-.084-1.4137.504-2.7441 1.596-3.6588 2.436-1.8295 5.797-1.8295 8.233 0 1.008.9147 1.596 2.2451 1.596 3.6588.084 1.4136-.504 2.7441-1.596 3.6588-1.092.9978-2.604 1.4968-4.116 1.4136zm-4.873 37.8354v-32.9293h9.913v33.0125z"/><path d="m383.67 80.7703c-1.428 0-2.857-.2495-4.117-.7484-1.176-.4989-2.268-1.2473-3.108-2.162s-1.512-1.9958-2.017-3.1599c-.504-1.2473-.756-2.5778-.672-3.9083-.084-3.3262 1.597-6.4029 4.453-8.1492 2.94-1.9957 7.729-3.243 14.282-3.9082 0-1.2474-.504-2.4947-1.344-3.4925-.756-.8316-2.1-1.3305-3.949-1.3305-1.428 0-2.94.3326-4.284.8315-1.597.5821-3.109 1.3305-4.537 2.1621l-3.528-6.4861c2.1-1.2473 4.368-2.3284 6.721-3.1599 2.436-.8315 4.956-1.2473 7.477-1.1642 4.284 0 7.561 1.2474 9.829 3.6588 2.268 2.4115 3.36 6.1535 3.36 11.3091v18.8761h-8.065l-.672-3.4093h-.252c-1.344 1.1642-2.856 2.2452-4.452 2.9936-1.597.8315-3.361 1.2473-5.125 1.2473zm3.36-7.5671c1.008 0 2.017-.2495 2.857-.7484.924-.5821 1.764-1.2473 2.52-2.0789v-5.8208c-3.528.4989-5.881 1.1642-7.225 2.162-1.176.6653-1.932 1.9126-2.016 3.3262-.084.9147.336 1.8294 1.008 2.3283.84.5821 1.848.8316 2.856.8316z"/><path d="m433.152 80.7703c-1.512 0-2.94-.2495-4.284-.8316-1.092-.4989-2.101-1.2473-2.773-2.2451-.756-1.081-1.26-2.2452-1.512-3.4925-.336-1.4968-.504-2.9936-.504-4.5735v-36.2555h9.914v36.7544c-.085.7484.084 1.4968.588 2.162.252.3326.756.5821 1.176.5821h.588c.252 0 .42-.0832.672-.1663l1.176 7.2344c-.672.2495-1.344.4158-2.016.5821-1.008.1663-2.016.2495-3.025.2495z"/><path d="m458.272 80.7703c-2.268 0-4.536-.4158-6.637-1.1642-2.016-.7484-3.864-1.9125-5.376-3.4093-1.597-1.5799-2.773-3.4093-3.529-5.4051-.924-2.3283-1.344-4.8229-1.26-7.3176 0-2.4946.42-4.9061 1.344-7.2344.84-1.9958 2.016-3.9083 3.529-5.4883 1.428-1.4967 3.108-2.6609 5.04-3.4093 1.849-.8316 3.865-1.1642 5.881-1.1642 2.101-.0831 4.285.3326 6.217 1.1642 1.68.7484 3.277 1.9125 4.453 3.3262 1.176 1.4968 2.1 3.1599 2.688 4.9893.588 2.0788.84 4.1577.84 6.3197 0 .8316-.084 1.6631-.168 2.4947-.084.8315-.168 1.4136-.252 1.8294h-19.995c.252 2.0788 1.345 3.9914 3.025 5.3219 1.68 1.1642 3.612 1.7462 5.713 1.6631 2.52-.0832 5.04-.8316 7.225-2.162l3.276 5.9871c-1.764 1.1642-3.612 2.0789-5.629 2.7441-2.268.5821-4.284.9147-6.385.9147zm-7.393-20.8718h12.014c.084-1.58-.42-3.1599-1.26-4.4904-.84-1.1642-2.268-1.7462-4.285-1.7462-1.512 0-3.024.4989-4.116 1.4967-1.345 1.3305-2.185 2.9936-2.353 4.7399z"/><path d="m483.056 42.1033c-1.512.0832-2.94-.4158-4.117-1.4136-1.092-.9147-1.68-2.2452-1.596-3.6588-.084-1.4137.504-2.7441 1.596-3.6588 2.437-1.8295 5.797-1.8295 8.234 0 1.008.9147 1.596 2.2451 1.596 3.6588.084 1.4136-.504 2.7441-1.596 3.6588-1.177.9978-2.605 1.4968-4.117 1.4136zm-4.957 37.8354v-32.9293h9.914v33.0125z"/><path d="m509.519 80.7703c-1.764.0832-3.612-.2494-5.292-.9147-1.344-.5821-2.605-1.4968-3.529-2.5778-.924-1.1642-1.68-2.5778-2.016-3.9914-.42-1.7463-.672-3.4925-.672-5.2388v-13.3879h-4.537v-7.2344l5.125-.4158 1.092-8.8144h8.233v8.8144h7.981v7.6502h-7.981v13.2216c0 1.8294.42 3.1599 1.176 3.9915.841.8315 1.933 1.2473 3.109 1.2473.588 0 1.092-.0832 1.68-.1663.504-.0832 1.008-.2495 1.512-.499l1.513 7.1513c-.925.2495-1.933.499-3.193.8316-1.344.2495-2.772.4158-4.201.3326z"/><path d="m536.151 80.7703c-2.268 0-4.536-.4158-6.637-1.1642-2.016-.7484-3.864-1.9125-5.376-3.4093-1.597-1.4968-2.773-3.4093-3.529-5.4051-.924-2.3283-1.344-4.8229-1.26-7.3176 0-2.4946.42-4.9061 1.344-7.2344.84-1.9958 2.016-3.9083 3.529-5.4883 1.428-1.4967 3.108-2.6609 5.04-3.4093 1.849-.8316 3.865-1.1642 5.881-1.1642 2.1-.0831 4.285.3326 6.217 1.1642 1.68.7484 3.192 1.9125 4.453 3.3262 1.176 1.4968 2.1 3.1599 2.688 4.9893.588 2.0788.84 4.1577.84 6.3197 0 .8316-.084 1.6631-.168 2.4947-.084.8315-.168 1.4136-.252 1.8294h-19.995c.252 2.0788 1.344 3.9914 3.025 5.3219 1.68 1.1642 3.612 1.7462 5.712 1.6631 2.521-.0832 5.041-.8316 7.225-2.162l3.277 5.9871c-1.764 1.1642-3.697 2.0789-5.713 2.7441-2.184.5821-4.2.9147-6.301.9147zm-7.393-20.8718h12.014c.084-1.58-.42-3.1599-1.26-4.4904-.84-1.1642-2.269-1.7462-4.285-1.7462-1.512 0-3.024.4989-4.116 1.4967-1.345 1.3305-2.185 2.9105-2.353 4.7399z"/></g></svg>