<?xml version="1.0" encoding="utf-8"?>
<!-- Generator: Adobe Illustrator 25.2.3, SVG Export Plug-In . SVG Version: 6.00 Build 0)  -->
<svg version="1.1" id="Layer_1" xmlns="http://www.w3.org/2000/svg" xmlns:xlink="http://www.w3.org/1999/xlink" x="0px" y="0px"
	 viewBox="0 0 425.197 174.298" enable-background="new 0 0 425.197 174.298" xml:space="preserve">
<path fill-rule="evenodd" clip-rule="evenodd" d="M185.796,149.409V49.849c0-13.745-11.144-24.889-24.889-24.889
	c-13.747,0-24.891,11.144-24.89,24.889l-0.001,99.561c0,13.745,11.144,24.89,24.89,24.889
	C174.653,174.298,185.796,163.155,185.796,149.409z"/>
<path fill-rule="evenodd" clip-rule="evenodd" d="M400.306,24.961l-70.402-0.001c-13.746,0-24.891,11.144-24.889,24.889
	c0,13.747,11.143,24.891,24.889,24.891h10.312v74.668c0,13.747,11.147,24.891,24.893,24.891c13.744,0,24.889-11.144,24.889-24.891
	V74.739h10.309c13.746,0.001,24.891-11.143,24.891-24.889C425.199,36.105,414.054,24.961,400.306,24.961z"/>
<path fill-rule="evenodd" clip-rule="evenodd" d="M101.294,174.298c13.747,0,24.89-11.144,24.89-24.891
	c0-13.745-11.144-24.889-24.89-24.889H74.669c-13.746,0-24.889-11.143-24.889-24.889c0-13.747,11.143-24.891,24.89-24.891h26.624
	c13.746,0,24.89-11.144,24.89-24.891c0-13.745-11.144-24.889-24.89-24.889H74.669C33.43,24.96,0,58.391,0,99.63
	c0,41.238,33.43,74.668,74.669,74.668H101.294z"/>
<path fill-rule="evenodd" clip-rule="evenodd" d="M204.725,95.841c-5.728,8.108-9.104,17.996-9.104,28.678
	c0,27.492,22.289,49.779,49.779,49.779c10.683,0,20.57-3.376,28.679-9.103L204.725,95.841z"/>
<path fill-rule="evenodd" clip-rule="evenodd" d="M323.092,131.81l-92.432-92.201c-8.018-8.017-7.916-21.116,0.225-29.257
	c1.021-1.021,2.128-1.901,3.285-2.669c-5.316,8.064-4.507,18.93,2.49,25.926l49.373,49.25c5.754-8.12,9.148-18.031,9.148-28.741
	c0-27.491-22.287-49.778-49.781-49.778c-27.49,0-49.778,22.287-49.778,49.778c0,13.748,5.572,26.192,14.581,35.201l70.398,70.399
	l0,0l7.289,7.289c9.723,9.722,25.48,9.722,35.201,0C332.811,157.288,332.811,141.528,323.092,131.81z"/>
</svg>
